# xmcd CD database file
#
# Track frame offsets:
#	150
#	11968
#	43580
#	77933
#	108767
#	138553
#	158347
#	176531
#	219389
#
# Disc length: 3285 seconds
#
# Revision: 0
# Processed by: cddbd v1.5.2PL0 Copyright (c) Steve Scherf et al.
# Submitted via: CDex 1.51
#
DISCID=6e0cd309
DTITLE=Loreena McKennitt - An Ancient Muse
DYEAR=2006
DGENRE=New Age
TTITLE0=Incantation
TTITLE1=The Gates of Istanbul
TTITLE2=Caravanserai
TTITLE3=The English Ladye and the Knight
TTITLE4=Kecharitomene [instrumental]
TTITLE5=Penelope's Song
TTITLE6=Sacred Shabbat [instrumental]
TTITLE7=Beneath a Phrygian Sky
TTITLE8=Never-Ending Road (Amhrán Duit)
EXTD=YEAR: 2006
EXTT0=
EXTT1=
EXTT2=
EXTT3=
EXTT4=
EXTT5=
EXTT6=
EXTT7=
EXTT8=
PLAYORDER=
